<svg width="320" height="125" viewBox="0 0 320 125" fill="none" xmlns="http://www.w3.org/2000/svg">
<path d="M155 66C181.5 57.7301 209.901 45.1013 223.939 19.4409C226.128 15.4395 229.917 5.09005 223.54 2.63164C217.944 0.474177 207.726 4.14845 204.708 9.03517C196.854 21.7539 190.84 40.4178 210.032 46.1891C230.924 52.4719 258.834 47.3967 279.57 41.9867C289.627 39.3627 301.529 35.4071 310.446 29.9801C316.365 26.3775 310.588 27.5788 306.187 27.5788C299.929 27.5788 285.478 27.5788 299.333 27.5788C304.963 27.5788 311.118 26.6908 316.169 25.2442C321.569 23.6976 313.385 30.0664 312.575 31.2475C310.022 34.9708 307.119 40.9915 307.119 45.5887" stroke="#1C1C1C" stroke-width="3" stroke-linecap="round"/>
<path d="M9.09033 61.1893C9.36413 61.1452 9.65502 61.3704 9.963 61.865C10.0292 62.2757 9.45978 62.7187 8.25472 63.1938C6.82108 64.3204 5.84307 66.0406 5.3207 68.3546C4.81544 70.6658 4.73385 72.8824 5.07593 75.0043C5.62493 78.4097 7.07324 80.4235 9.42087 81.0458L10.2671 81.0674C12.0981 80.7722 13.1407 78.9625 13.3949 75.6384L13.3279 74.5694C13.1072 73.2004 12.4603 72.1284 11.3873 71.3533L11.2333 71.3781C10.9401 71.8467 10.4545 73.4086 9.77646 76.0637L9.27382 76.5398C8.79468 76.617 8.47398 76.3702 8.31173 75.7995C9.31669 71.6871 10.1101 69.584 10.6919 69.4902L10.8459 69.4654C13.1295 70.3438 14.4616 71.9638 14.8423 74.3253C15.2727 76.9948 14.5362 79.396 12.6327 81.5288C12.323 81.8947 11.6329 82.243 10.5626 82.5736C8.49198 82.9074 6.53935 81.6859 4.70469 78.9092C4.13843 77.6837 3.76977 76.5405 3.59873 75.4795L3.53666 75.0945C2.94629 71.4324 3.56122 67.7867 5.38146 64.1574C6.65617 62.3718 7.89246 61.3824 9.09033 61.1893ZM17.4753 70.1611C18.1626 70.0679 19.5108 71.0795 21.5199 73.1961L21.6416 73.6242C21.7189 74.1033 20.606 74.6602 18.303 75.2948L18.2384 75.3843L18.2549 75.4869C18.8626 76.9691 19.3632 77.6785 19.7568 77.615L20.0648 77.5654C20.6124 77.4771 21.3472 76.7529 22.2691 75.3928L22.4231 75.368C22.7654 75.3128 23.0706 75.5182 23.3389 75.9841C23.4051 76.3948 22.8008 77.2208 21.5262 78.4622C21.1856 78.7454 20.7583 78.981 20.2444 79.1692C18.8582 79.3927 17.6817 78.248 16.7148 75.7352C15.9083 75.7423 15.4623 75.4806 15.3768 74.9502C15.3161 74.5737 15.567 74.2787 16.1295 74.0651L16.1461 74.1678L16.3862 74.0237L16.2828 73.382C15.9655 71.4141 16.363 70.3404 17.4753 70.1611ZM17.9273 71.9844L17.6963 72.0217L17.7467 72.988L17.875 73.7837L17.9777 73.7671C18.9304 73.5784 19.393 73.3985 19.3655 73.2274C18.8129 72.6317 18.3336 72.2174 17.9273 71.9844ZM25.0078 62.4155C25.5035 62.441 25.7816 62.6419 25.8423 63.0184L25.8704 64.1726L25.9242 64.5063C26.0456 65.2593 26.2594 66.0412 26.5657 66.8521L26.6171 66.8439C28.5056 65.9249 29.6894 65.4268 30.1685 65.3496C30.6868 65.4065 30.975 65.6146 31.0329 65.9739C31.1267 66.5558 30.5832 66.9419 29.4025 67.1322L26.886 68.5123C27.2585 70.8225 28.0128 73.9226 29.1491 77.8127C29.1209 78.2913 28.9101 78.5623 28.5165 78.6257L28.4651 78.634C27.8662 78.7306 27.4426 78.0088 27.1943 76.4687C26.787 75.358 26.1974 72.8985 25.4254 69.0901L24.9634 69.1646C23.3382 69.3213 22.4733 69.0745 22.3684 68.4242C22.3381 68.236 22.4805 67.976 22.7957 67.6442L23.0524 67.6029L24.2828 67.7205L25.1042 67.5881L24.356 64.4168C24.1573 63.1847 24.3746 62.5176 25.0078 62.4155ZM42.3575 67.7036C42.9564 67.607 43.5796 68.8585 44.2269 71.4579C44.7137 72.626 45.0255 73.199 45.1624 73.1769L45.3164 73.1521C45.5704 72.0051 45.6119 70.901 45.4409 69.8401L45.0013 68.0938C45.1151 67.6014 45.3431 67.3276 45.6853 67.2724C46.3185 67.1704 46.8157 68.2402 47.1771 70.4819C47.9288 72.7485 48.466 74.8829 48.7888 76.885L48.9833 78.0915C49.5764 81.7706 48.9326 84.4202 47.0518 86.0402L46.5036 86.2339C45.5282 86.3912 44.475 85.6304 43.3441 83.9517L42.8648 82.4488L42.8524 82.3718C42.6703 81.2424 42.8959 80.6266 43.529 80.5246L44.2369 80.8318L44.4206 82.4613C44.5475 83.2485 45.078 83.9794 46.0119 84.654L46.3456 84.6002C47.2868 84.4485 47.6902 82.54 47.5557 78.8746L47.3671 77.3776C47.0713 75.652 46.8249 74.5593 46.6279 74.0994C46.04 74.8087 45.5492 75.1951 45.1556 75.2585C44.2829 75.3992 43.1277 73.1889 41.6901 68.6276L41.6048 68.5887C41.5413 68.1951 41.7922 67.9001 42.3575 67.7036ZM51.8609 64.1437C53.1272 63.9395 54.2373 64.7262 55.191 66.5037L55.3806 67.0262C55.6758 68.8573 55.1222 70.869 53.72 73.0615C53.1375 73.805 52.4955 74.2333 51.7939 74.3464C50.7672 74.5119 49.9447 74.0388 49.3266 72.927C49.0843 72.4042 48.93 71.9375 48.8638 71.5268L48.8141 71.2188C48.3783 68.515 49.0312 66.3029 50.7729 64.5824C51.0875 64.3561 51.4502 64.2099 51.8609 64.1437ZM50.37 71.2313C50.5576 72.3949 50.9508 72.9285 51.5498 72.8319C52.799 72.6305 53.5763 70.8636 53.8818 67.5312L53.8032 67.0435C53.3413 66.0294 52.7167 65.5858 51.9295 65.7127C51.6215 65.7624 51.502 66.0011 51.5709 66.4289C51.6178 66.7199 51.3128 67.006 50.6559 67.2875C50.2198 68.3937 50.1244 69.7083 50.37 71.2313ZM57.0605 65.3069L57.4811 64.9758C57.8918 64.9096 58.2313 65.1094 58.4995 65.5753C58.4299 66.8858 58.5026 68.2084 58.7178 69.5432C58.8254 70.2105 59.1395 70.9061 59.6599 71.6298L59.814 71.605C60.3102 71.525 60.5847 69.4704 60.6375 65.4413C60.8439 65.1974 61.0584 65.0575 61.2809 65.0216C61.8113 64.9361 62.2283 65.8345 62.5318 67.7169C63.088 69.7516 63.5031 70.7469 63.7769 70.7027L64.1371 70.4867C64.6637 70.5949 64.9546 70.8201 65.0097 71.1624C64.8066 71.8623 64.4312 72.2564 63.8836 72.3447C63.2675 72.444 62.5778 71.9231 61.8145 70.7821C61.3617 72.3299 60.7845 73.1603 60.0829 73.2734C59.0391 73.4417 58.1366 72.4723 57.3756 70.3653L57.1661 69.5563L57.1248 69.2996C56.9041 67.9306 56.8826 66.5997 57.0605 65.3069ZM67.1779 61.2267C68.256 61.0529 69.0191 61.7023 69.4672 63.1751L69.5044 63.4062C69.772 65.0661 69.1619 66.727 67.6742 68.389C68.8239 69.2044 70.6395 69.4121 73.1207 69.012C73.5165 69.0711 73.7475 69.306 73.8137 69.7167C73.8882 70.1788 73.626 70.4581 73.0271 70.5546C71.3501 70.825 69.5185 70.6813 67.5324 70.1236L67.6524 70.868C67.9366 72.6306 67.7022 73.5726 66.9492 73.694C66.4188 73.7795 65.9894 72.8041 65.6611 70.7677L65.3383 68.7655L65.1454 68.0592L65.1927 67.2089L64.6158 64.7737L64.5992 64.671C64.5247 64.2089 64.7133 63.8537 65.1648 63.6054C65.617 62.163 66.288 61.3701 67.1779 61.2267ZM66.8007 67.055C67.297 66.975 67.7097 65.9955 68.0388 64.1165L67.8609 63.0127L67.499 62.7287L67.268 62.7659C66.5978 63.4007 66.4421 64.8304 66.8007 67.055ZM82.1973 56.6721C83.0872 56.5287 83.9418 58.1817 84.7613 61.6313L85.0436 62.4022C85.5714 60.6667 86.0835 59.759 86.5797 59.679C86.5687 59.6105 86.7401 59.5302 87.094 59.438L87.1966 59.4215C88.3261 59.2394 89.1868 60.0048 89.779 61.7178L89.7914 61.7948C90.0342 63.3007 89.5489 65.0819 88.3354 67.1386C87.8126 67.9252 87.1747 68.3792 86.4218 68.5006C85.5358 68.4503 85.039 68.0914 84.9314 67.424L82.1624 58.4159L81.6243 57.5283C81.5746 57.2202 81.7656 56.9349 82.1973 56.6721ZM86.5469 66.6632L86.6239 66.6508C87.4558 66.148 88.0372 64.7989 88.368 62.6036L88.2108 61.6282C87.9712 61.1226 87.7317 60.889 87.4921 60.9277L87.2868 60.9608C86.6056 61.5271 86.3589 63.4279 86.5469 66.6632ZM91.5787 59.7421L91.9993 59.411C92.41 59.3448 92.7495 59.5446 93.0178 60.0105C92.9481 61.321 93.0209 62.6436 93.2361 63.9784C93.3436 64.6457 93.6577 65.3413 94.1782 66.065L94.3322 66.0402C94.8284 65.9602 95.1029 63.9056 95.1557 59.8765C95.3622 59.6326 95.5766 59.4927 95.7991 59.4568C96.3296 59.3713 96.7465 60.2697 97.05 62.1521C97.6063 64.1868 98.0213 65.1821 98.2951 65.138L98.6553 64.9219C99.1819 65.0301 99.4728 65.2553 99.528 65.5976C99.3248 66.2975 98.9494 66.6916 98.4018 66.7799C97.7857 66.8792 97.096 66.3583 96.3327 65.2173C95.88 66.7651 95.3028 67.5955 94.6012 67.7086C93.5573 67.8769 92.6548 66.9075 91.8938 64.8005L91.6844 63.9915L91.643 63.7348C91.4223 62.3658 91.4009 61.0349 91.5787 59.7421ZM103.422 55.094C103.884 55.0195 104.326 55.7471 104.748 57.2767C104.646 57.7321 104.398 57.9915 104.004 58.055C103.722 58.0478 103.398 57.7753 103.03 57.2377L102.543 57.1581C101.739 57.2878 101.097 57.9355 100.618 59.1013L100.655 59.3323C100.696 59.589 101.972 59.8223 104.481 60.0323C105.587 60.4685 106.209 61.1144 106.347 61.97C106.574 63.3732 105.637 64.7531 103.538 66.1098L102.614 66.4169C101.151 66.4947 100.317 65.8918 100.11 64.6084L100.097 64.5314C100.031 64.1207 100.258 63.8383 100.777 63.6844C101.188 63.6182 101.531 64.0018 101.806 64.8354L102.036 64.9563L102.472 64.8859C103.447 64.7287 104.247 63.9151 104.87 62.4451L104.816 62.1115C104.734 61.5981 103.536 61.2996 101.222 61.2161C99.9641 60.9273 99.2661 60.3551 99.1282 59.4995C98.9488 58.3872 99.7132 57.193 101.421 55.9169C102.226 55.6818 102.893 55.4075 103.422 55.094ZM105.705 51.671C106.377 51.7031 106.749 51.9416 106.821 52.3865C106.727 52.8932 106.492 53.1769 106.115 53.2376C105.463 53.2199 105.095 52.9544 105.012 52.441C105.115 51.9856 105.345 51.7289 105.705 51.671ZM107.259 55.1073C107.533 55.0632 107.804 55.2741 108.072 55.74L108.135 57.5997L108.33 58.8061C108.556 60.2094 109.092 62.0103 109.938 64.209C109.819 64.5617 109.555 64.7712 109.144 64.8374C108.442 64.9505 107.649 62.9715 106.765 58.9004L106.62 58.002C106.328 56.1881 106.541 55.2232 107.259 55.1073ZM113.023 55.3369C114.497 55.2222 115.339 55.8151 115.549 57.1156L115.654 57.441L116.248 61.4536C116.323 61.9157 116.688 62.4975 117.346 63.1991L117.354 63.2505C117.297 63.7688 117.089 64.0569 116.73 64.1149C115.597 63.841 114.915 62.9853 114.683 61.5479L114.629 61.2142L114.544 61.1753L114.604 61.0602L114.596 61.0089L114.102 57.4542C114.022 56.9579 113.768 56.7443 113.34 56.8132L113.032 56.8629C112.232 57.3431 112.106 59.2859 112.655 62.6912C112.846 63.872 112.641 64.5106 112.042 64.6072C111.58 64.6817 111.294 64.4294 111.183 63.8503L110.769 61.2835C110.234 57.9637 110.257 56.2569 110.839 56.1631L111.083 56.0447L111.635 56.0348C112.047 55.6523 112.51 55.4196 113.023 55.3369ZM118.768 53.8314C119.455 53.7382 120.803 54.7498 122.813 56.8664L122.934 57.2944C123.011 57.7736 121.899 58.3305 119.596 58.9651L119.531 59.0545L119.548 59.1572C120.155 60.6394 120.656 61.3488 121.049 61.2853L121.357 61.2356C121.905 61.1474 122.64 60.4232 123.562 59.0631L123.716 59.0383C124.058 58.9831 124.363 59.1885 124.631 59.6544C124.698 60.0651 124.093 60.8911 122.819 62.1325C122.478 62.4156 122.051 62.6513 121.537 62.8395C120.151 63.063 118.974 61.9183 118.007 59.4055C117.201 59.4126 116.755 59.1509 116.669 58.6204C116.609 58.244 116.86 57.9489 117.422 57.7354L117.439 57.838L117.679 57.694L117.575 57.0523C117.258 55.0843 117.656 54.0107 118.768 53.8314ZM119.22 55.6547L118.989 55.692L119.039 56.6582L119.168 57.454L119.27 57.4374C120.223 57.2487 120.686 57.0688 120.658 56.8977C120.106 56.302 119.626 55.8877 119.22 55.6547ZM129.267 50.9274C129.729 50.8529 130.171 51.5805 130.593 53.1101C130.491 53.5655 130.243 53.825 129.849 53.8884C129.567 53.8812 129.243 53.6088 128.875 53.0711L128.388 52.9916C127.584 53.1212 126.942 53.769 126.463 54.9348L126.5 55.1658C126.541 55.4225 127.817 55.6558 130.326 55.8657C131.432 56.3019 132.055 56.9478 132.192 57.8034C132.419 59.2066 131.482 60.5866 129.384 61.9432L128.459 62.2504C126.996 62.3281 126.162 61.7252 125.955 60.4418L125.942 60.3648C125.876 59.9541 126.103 59.6718 126.622 59.5178C127.033 59.4516 127.376 59.8353 127.651 60.6688L127.881 60.7897L128.317 60.7194C129.293 60.5621 130.092 59.7485 130.715 58.2786L130.661 57.9449C130.579 57.4315 129.381 57.1331 127.067 57.0495C125.809 56.7607 125.111 56.1885 124.973 55.3329C124.794 54.2206 125.558 53.0264 127.266 51.7503C128.071 51.5152 128.738 51.2409 129.267 50.9274ZM136.881 49.6999C137.343 49.6254 137.785 50.353 138.207 51.8826C138.105 52.338 137.857 52.5974 137.464 52.6609C137.182 52.6537 136.857 52.3812 136.489 51.8436L136.002 51.764C135.198 51.8937 134.556 52.5414 134.077 53.7072L134.114 53.9382C134.156 54.1949 135.431 54.4282 137.941 54.6382C139.047 55.0744 139.669 55.7203 139.807 56.5759C140.033 57.9791 139.097 59.359 136.998 60.7157L136.073 61.0228C134.611 61.1006 133.776 60.4977 133.569 59.2143L133.557 59.1373C133.491 58.7266 133.717 58.4442 134.237 58.2903C134.647 58.2241 134.99 58.6077 135.265 59.4413L135.495 59.5622L135.931 59.4918C136.907 59.3346 137.706 58.521 138.33 57.051L138.276 56.7174C138.193 56.204 136.995 55.9055 134.681 55.822C133.423 55.5332 132.725 54.961 132.588 54.1054C132.408 52.9931 133.173 51.7989 134.881 50.5228C135.685 50.2877 136.352 50.0134 136.881 49.6999ZM53.4547 90.2427C53.9504 90.2681 54.2286 90.4691 54.2893 90.8455L54.3174 91.9998L54.3712 92.3335C54.4925 93.0864 54.7064 93.8683 55.0127 94.6793L55.064 94.671C56.9525 93.752 58.1363 93.2539 58.6155 93.1767C59.1338 93.2336 59.4219 93.4417 59.4799 93.8011C59.5737 94.3829 59.0302 94.769 57.8494 94.9593L55.333 96.3394C55.7054 98.6496 56.4598 101.75 57.5961 105.64C57.5679 106.118 57.357 106.389 56.9634 106.453L56.9121 106.461C56.3132 106.558 55.8895 105.836 55.6413 104.296C55.234 103.185 54.6443 100.726 53.8724 96.9173L53.4103 96.9918C51.7852 97.1484 50.9202 96.9016 50.8154 96.2513C50.7851 96.0631 50.9275 95.8031 51.2427 95.4714L51.4994 95.43L52.7298 95.5477L53.5512 95.4153L52.8029 92.2439C52.6043 91.0118 52.8216 90.3448 53.4547 90.2427ZM64.3523 94.5431C65.6186 94.3389 66.7286 95.1256 67.6823 96.9031L67.8719 97.4256C68.1671 99.2567 67.6136 101.268 66.2113 103.461C65.6289 104.204 64.9869 104.633 64.2852 104.746C63.2585 104.911 62.4361 104.438 61.8179 103.326C61.5756 102.804 61.4213 102.337 61.3551 101.926L61.3055 101.618C60.8696 98.9144 61.5225 96.7023 63.2642 94.9818C63.5789 94.7555 63.9416 94.6093 64.3523 94.5431ZM62.8613 101.631C63.0489 102.794 63.4422 103.328 64.0411 103.231C65.2903 103.03 66.0677 101.263 66.3732 97.9306L66.2945 97.4429C65.8326 96.4288 65.208 95.9852 64.4209 96.1121C64.1128 96.1618 63.9933 96.4005 64.0623 96.8283C64.1092 97.1193 63.8042 97.4054 63.1473 97.6869C62.7111 98.7931 62.6158 100.108 62.8613 101.631ZM82.6732 90.8521C83.1353 90.7776 83.5774 91.5052 83.9996 93.0348C83.8974 93.4902 83.6495 93.7496 83.2559 93.8131C82.9739 93.8059 82.649 93.5334 82.2814 92.9958L81.7946 92.9162C80.9903 93.0459 80.3485 93.6936 79.8693 94.8594L79.9066 95.0904C79.9479 95.3471 81.2233 95.5804 83.7327 95.7904C84.8389 96.2266 85.461 96.8725 85.5989 97.7281C85.8251 99.1313 84.8888 100.511 82.79 101.868L81.8651 102.175C80.4028 102.253 79.5682 101.65 79.3613 100.366L79.3489 100.289C79.2827 99.8788 79.5093 99.5964 80.0288 99.4425C80.4395 99.3763 80.7822 99.7599 81.0571 100.593L81.2872 100.714L81.7236 100.644C82.699 100.487 83.4984 99.6732 84.1217 98.2032L84.0679 97.8696C83.9852 97.3562 82.787 97.0577 80.4736 96.9742C79.2156 96.6854 78.5176 96.1132 78.3797 95.2576C78.2004 94.1453 78.9647 92.9511 80.6727 91.675C81.4776 91.4399 82.1444 91.1656 82.6732 90.8521ZM85.9242 87.0624L86.0782 87.0375C86.3006 87.0017 86.5449 87.1554 86.8109 87.4988L86.9897 89.2608L87.1469 90.2362L87.9738 94.7117L88.0921 94.9559L88.1691 94.9435C88.7946 94.1404 89.2418 92.8305 89.5108 91.0139L90.0466 90.7432C90.5367 90.7344 90.8108 90.9097 90.8687 91.269C91.048 92.3813 90.4937 94.0069 89.2057 96.1459L89.2347 96.3255C91.734 98.4333 93.3174 99.4334 93.9847 99.3258L94.1388 99.3009L94.7184 98.8125L94.9494 98.7752C95.3088 98.7173 95.6126 98.9141 95.861 99.3657C95.9493 99.9133 95.4025 100.388 94.2206 100.789C93.0056 100.985 91.2241 100.008 88.876 97.8582L88.645 97.8954L88.9455 99.2691L89.1607 100.604C89.1435 101.151 88.921 101.459 88.4932 101.528C87.9975 101.502 87.7152 101.276 87.6462 100.848L87.6214 100.694L87.0428 97.7587C86.8546 97.789 86.6835 97.5445 86.5295 97.025L86.7598 96.3295L85.6747 90.5789L85.4926 89.4495C85.2498 87.9436 85.3937 87.1479 85.9242 87.0624ZM95.8785 91.4885C96.4774 91.3919 97.1005 92.6434 97.7478 95.2428C98.2346 96.4109 98.5465 96.9839 98.6834 96.9618L98.8374 96.937C99.0914 95.7899 99.1329 94.6859 98.9618 93.625L98.5223 91.8787C98.636 91.3863 98.864 91.1125 99.2063 91.0573C99.8394 90.9552 100.337 92.0251 100.698 94.2668C101.45 96.5334 101.987 98.6678 102.31 100.67L102.504 101.876C103.097 105.555 102.454 108.205 100.573 109.825L100.025 110.019C99.0492 110.176 97.996 109.415 96.8651 107.737L96.3858 106.234L96.3733 106.157C96.1913 105.027 96.4168 104.412 97.05 104.309L97.7579 104.617L97.9416 106.246C98.0685 107.033 98.5989 107.764 99.5329 108.439L99.8666 108.385C100.808 108.233 101.211 106.325 101.077 102.66L100.888 101.162C100.592 99.4369 100.346 98.3442 100.149 97.8843C99.5609 98.5936 99.0702 98.98 98.6766 99.0434C97.8038 99.1841 96.6487 96.9738 95.211 92.4125L95.1257 92.3735C95.0623 91.98 95.3132 91.6849 95.8785 91.4885Z" fill="black"/>
</svg>
