<svg width="1200" height="630" viewBox="0 0 1200 630" fill="none" xmlns="http://www.w3.org/2000/svg">
<rect width="1200" height="630" rx="86" fill="white"/>
<g clip-path="url(#clip0_307_8)">
<rect x="16" y="16" width="1168" height="598" rx="72" fill="white"/>
<g filter="url(#filter0_f_307_8)">
<path d="M265.2 279.628C350.105 101.439 522.484 8.07546 744.711 -44.1904C1016.73 -108.167 1704.14 -208.66 1835.81 23.662C1926.45 183.602 1704.87 292.257 1521.32 317.15C1007.87 386.783 689.574 697.55 442.447 656.678C267.101 627.678 183.141 451.844 265.2 279.628Z" fill="url(#paint0_linear_307_8)"/>
</g>
<g filter="url(#filter1_f_307_8)">
<circle cx="895" cy="575" r="255" fill="#FF29A8"/>
</g>
<g filter="url(#filter2_f_307_8)">
<circle cx="660.5" cy="1043.5" r="398.5" fill="#FF4473"/>
</g>
<g filter="url(#filter3_f_307_8)">
<ellipse cx="1456.5" cy="738.5" rx="632.5" ry="449.5" fill="#FF3D00"/>
</g>
<g filter="url(#filter4_f_307_8)">
<ellipse cx="1514.5" cy="886" rx="574.5" ry="408" fill="#FFBB00"/>
</g>
<g filter="url(#filter5_f_307_8)">
<ellipse cx="1174.42" cy="-64.1997" rx="547.53" ry="216.86" transform="rotate(-16.1857 1174.42 -64.1997)" fill="white"/>
</g>
<path d="M499.976 299.16C501.287 299.16 502.296 299.763 503.002 300.971C503.809 302.179 504.213 303.839 504.213 305.952C504.213 309.977 503.254 313.096 501.338 315.31C497 320.643 492.31 325.021 487.266 328.442C482.323 331.863 476.674 333.574 470.319 333.574C464.973 333.574 460.636 331.662 457.307 327.838C451.557 331.561 445.555 333.473 439.301 333.574C437.99 352.995 435.014 369.196 430.374 382.177C425.733 395.258 418.924 401.799 409.947 401.799C404.5 401.799 400.465 399.837 397.842 395.912C395.219 391.988 393.908 386.554 393.908 379.611C393.908 369.749 396.178 358.227 400.717 345.045C405.256 331.964 412.267 317.524 421.749 301.726C421.749 287.034 421.648 276.821 421.446 271.085C421.345 268.167 422.505 265.852 424.926 264.142C427.347 262.431 430.374 261.576 434.005 261.576C436.123 261.576 437.636 262.029 438.544 262.934C439.553 263.739 440.108 265.4 440.209 267.915C440.209 270.431 440.259 272.292 440.36 273.5C443.588 269.475 446.765 266.607 449.893 264.896C453.02 263.085 456.348 262.179 459.879 262.179C465.528 262.179 470.118 264.444 473.648 268.972C477.28 273.5 479.095 279.437 479.095 286.783C479.095 292.116 478.238 297.298 476.523 302.329C474.808 307.361 472.438 311.939 469.411 316.065C471.53 316.669 473.295 316.971 474.707 316.971C478.036 316.971 481.214 315.763 484.24 313.348C487.266 310.933 491.15 306.908 495.891 301.273C497.101 299.864 498.463 299.16 499.976 299.16ZM440.057 319.084C443.689 318.279 447.018 316.317 450.044 313.197C453.171 309.977 455.642 306.053 457.458 301.424C459.274 296.694 460.182 291.764 460.182 286.632C460.182 283.613 459.576 281.349 458.366 279.839C457.155 278.229 455.541 277.424 453.524 277.424C449.893 277.424 445.505 281.248 440.36 288.896C440.259 293.323 440.209 299.814 440.209 308.367C440.209 312.996 440.158 316.568 440.057 319.084ZM411.157 387.007C413.881 387.007 416.15 381.07 417.966 369.196C419.782 357.422 420.942 342.731 421.446 325.121C417.109 335.184 413.679 344.794 411.157 353.951C408.635 363.108 407.375 370.806 407.375 377.045C407.375 380.265 407.778 382.73 408.585 384.441C409.291 386.151 410.149 387.007 411.157 387.007ZM511.846 252.519C507.609 252.519 504.431 251.563 502.313 249.651C500.195 247.639 499.136 244.872 499.136 241.35C499.136 237.828 500.497 234.91 503.221 232.595C506.045 230.18 509.526 228.973 513.661 228.973C517.394 228.973 520.42 229.878 522.74 231.69C525.06 233.501 526.22 236.067 526.22 239.388C526.22 243.413 524.909 246.633 522.286 249.048C519.663 251.362 516.183 252.519 511.846 252.519ZM510.635 333.574C504.078 333.574 499.287 331.26 496.261 326.631C493.335 322.002 491.873 315.864 491.873 308.216C491.873 303.688 492.428 297.902 493.537 290.858C494.748 283.714 496.261 277.072 498.076 270.934C498.984 267.714 500.195 265.5 501.708 264.293C503.221 263.085 505.642 262.481 508.971 262.481C514.115 262.481 516.688 264.192 516.688 267.613C516.688 270.129 515.729 275.965 513.813 285.122C511.392 296.191 510.181 303.688 510.181 307.612C510.181 310.631 510.585 312.946 511.392 314.556C512.199 316.166 513.56 316.971 515.477 316.971C517.293 316.971 519.562 315.713 522.286 313.197C525.01 310.681 528.641 306.707 533.18 301.273C534.391 299.864 535.753 299.16 537.266 299.16C538.577 299.16 539.586 299.763 540.292 300.971C541.099 302.179 541.502 303.839 541.502 305.952C541.502 309.977 540.544 313.096 538.627 315.31C528.641 327.486 519.31 333.574 510.635 333.574ZM617.323 299.16C618.634 299.16 619.643 299.763 620.349 300.971C621.156 302.179 621.56 303.839 621.56 305.952C621.56 309.977 620.601 313.096 618.685 315.31C614.246 320.543 609.354 324.92 604.008 328.442C598.762 331.863 592.81 333.574 586.153 333.574C581.008 333.574 576.419 332.618 572.384 330.706C568.45 328.794 565.322 326.077 563.002 322.555C557.253 329.8 550.444 333.423 542.576 333.423C537.028 333.423 532.64 331.813 529.412 328.593C526.184 325.373 524.57 321.096 524.57 315.763C524.57 310.732 525.73 306.656 528.05 303.537C530.37 300.418 533.648 298.858 537.885 298.858C541.516 298.858 543.332 300.216 543.332 302.933C543.332 303.638 543.231 304.895 543.03 306.707C542.727 310.329 542.576 312.392 542.576 312.895C542.576 315.914 543.887 317.423 546.51 317.423C548.426 317.423 550.242 316.317 551.957 314.103C553.772 311.788 555.235 308.669 556.345 304.744C557.555 300.82 558.16 296.493 558.16 291.764C558.16 288.141 557.707 285.122 556.799 282.707C555.891 280.192 554.781 278.934 553.47 278.934C552.36 278.934 551.553 279.236 551.049 279.839C550.545 280.343 550.04 281.248 549.536 282.556C548.931 284.166 548.124 285.475 547.115 286.481C546.106 287.386 544.341 287.839 541.819 287.839C539.6 287.839 537.835 287.085 536.523 285.575C535.212 283.965 534.556 281.55 534.556 278.33C534.556 273.198 536.12 269.173 539.247 266.255C542.374 263.337 546.409 261.878 551.352 261.878C555.588 261.878 559.421 262.934 562.851 265.047C566.281 267.06 568.903 270.028 570.719 273.953C573.745 269.928 577.125 266.909 580.857 264.896C584.69 262.884 588.422 261.878 592.054 261.878C595.988 261.878 598.964 262.783 600.981 264.595C603.099 266.406 604.159 269.324 604.159 273.349C604.159 277.877 603.302 281.449 601.586 284.066C599.871 286.581 597.804 287.839 595.383 287.839C593.163 287.839 591.65 287.386 590.843 286.481C590.036 285.575 589.431 284.267 589.028 282.556C588.826 281.349 588.523 280.443 588.12 279.839C587.716 279.236 587.01 278.934 586.001 278.934C584.791 278.934 583.48 280.091 582.067 282.405C580.756 284.619 579.596 287.588 578.587 291.311C577.679 295.034 577.225 298.908 577.225 302.933C577.225 307.663 578.335 311.336 580.554 313.952C582.874 316.467 586.001 317.725 589.936 317.725C593.87 317.725 597.551 316.417 600.981 313.801C604.512 311.084 608.597 306.908 613.238 301.273C614.448 299.864 615.81 299.16 617.323 299.16ZM686.516 286.481C687.827 286.481 688.836 287.135 689.542 288.443C690.248 289.751 690.601 291.411 690.601 293.424C690.601 298.254 689.138 301.122 686.213 302.028C680.161 304.141 673.503 305.348 666.24 305.65C664.324 314.103 660.541 320.895 654.892 326.027C649.243 331.058 642.838 333.574 635.676 333.574C629.623 333.574 624.428 332.115 620.091 329.197C615.854 326.279 612.626 322.404 610.407 317.574C608.188 312.744 607.078 307.512 607.078 301.877C607.078 294.229 608.541 287.437 611.466 281.5C614.391 275.462 618.426 270.783 623.571 267.462C628.715 264.041 634.415 262.33 640.669 262.33C648.335 262.33 654.488 264.997 659.129 270.33C663.87 275.563 666.644 282.053 667.451 289.801C672.192 289.5 677.841 288.493 684.397 286.783C685.204 286.581 685.91 286.481 686.516 286.481ZM636.886 317.574C640.114 317.574 642.888 316.266 645.208 313.65C647.629 311.034 649.243 307.26 650.05 302.329C646.923 300.216 644.502 297.449 642.787 294.028C641.173 290.606 640.366 286.984 640.366 283.16C640.366 281.55 640.517 279.94 640.82 278.33H640.064C636.029 278.33 632.649 280.292 629.926 284.217C627.303 288.04 625.992 293.474 625.992 300.518C625.992 306.053 627.051 310.279 629.169 313.197C631.388 316.115 633.961 317.574 636.886 317.574ZM688.359 333.574C684.525 333.574 681.802 331.561 680.188 327.536C678.675 323.511 677.918 317.071 677.918 308.216C677.918 295.135 679.784 282.707 683.517 270.934C684.425 268.016 685.887 265.903 687.905 264.595C690.023 263.186 692.948 262.481 696.681 262.481C698.698 262.481 700.11 262.733 700.917 263.236C701.724 263.739 702.128 264.695 702.128 266.104C702.128 267.714 701.371 271.336 699.858 276.972C698.849 280.997 698.042 284.519 697.437 287.537C696.832 290.556 696.328 294.279 695.924 298.707C699.253 290.053 702.985 283.009 707.121 277.575C711.257 272.141 715.292 268.267 719.226 265.953C723.261 263.639 726.943 262.481 730.271 262.481C736.828 262.481 740.107 265.752 740.107 272.292C740.107 273.601 739.653 276.77 738.745 281.802C737.938 285.827 737.534 288.342 737.534 289.349C737.534 292.871 738.795 294.632 741.317 294.632C744.141 294.632 747.773 292.418 752.211 287.99C753.523 286.682 754.884 286.028 756.297 286.028C757.608 286.028 758.617 286.632 759.323 287.839C760.13 288.946 760.533 290.456 760.533 292.367C760.533 296.091 759.525 299.009 757.507 301.122C754.683 304.04 751.354 306.556 747.521 308.669C743.788 310.681 739.804 311.688 735.567 311.688C730.221 311.688 726.136 310.329 723.311 307.612C720.588 304.895 719.226 301.223 719.226 296.594C719.226 295.084 719.377 293.575 719.68 292.066C719.881 290.053 719.982 288.695 719.982 287.99C719.982 286.38 719.428 285.575 718.318 285.575C716.805 285.575 714.787 287.286 712.266 290.707C709.845 294.028 707.424 298.455 705.003 303.99C702.582 309.524 700.615 315.361 699.102 321.499C697.992 326.228 696.681 329.448 695.168 331.159C693.755 332.769 691.486 333.574 688.359 333.574ZM799.43 262.481C801.751 262.481 803.364 262.783 804.272 263.387C805.18 263.991 805.634 264.997 805.634 266.406C805.634 268.821 804.323 277.424 801.7 292.216C799.38 306.405 798.018 314.807 797.615 317.423C793.882 343.284 788.738 363.762 782.181 378.856C775.624 393.95 766.899 401.497 756.005 401.497C750.86 401.497 746.674 399.887 743.446 396.667C740.218 393.547 738.604 389.422 738.604 384.29C738.604 379.56 739.663 374.73 741.781 369.8C744.001 364.869 748.036 359.183 753.886 352.743C759.838 346.404 768.21 339.108 779.004 330.857L779.458 327.385C780.164 323.662 780.971 318.329 781.879 311.386C779.861 318.631 777.037 324.165 773.405 327.989C769.774 331.712 765.941 333.574 761.906 333.574C757.366 333.574 753.634 331.511 750.709 327.385C747.884 323.159 746.472 317.927 746.472 311.688C746.472 304.141 746.976 297.248 747.985 291.009C748.994 284.669 750.658 277.978 752.978 270.934C753.987 267.915 755.399 265.752 757.215 264.444C759.031 263.135 761.906 262.481 765.84 262.481C768.059 262.481 769.572 262.834 770.379 263.538C771.287 264.242 771.741 265.299 771.741 266.708C771.741 267.513 771.186 270.23 770.076 274.858C769.068 278.582 768.261 281.953 767.655 284.971C766.848 289.097 766.142 293.072 765.537 296.896C764.932 300.619 764.629 303.688 764.629 306.103C764.629 309.927 765.688 311.839 767.807 311.839C769.32 311.839 771.186 310.329 773.405 307.31C775.725 304.292 778.146 299.713 780.668 293.575C783.291 287.437 785.813 279.89 788.234 270.934C789.041 267.915 790.251 265.752 791.865 264.444C793.58 263.135 796.102 262.481 799.43 262.481ZM757.669 386.856C760.191 386.856 763.015 383.938 766.142 378.101C769.269 372.265 772.396 362.554 775.523 348.97C767.756 355.511 762.107 361.448 758.577 366.781C755.147 372.215 753.432 376.944 753.432 380.969C753.432 382.68 753.735 384.088 754.34 385.195C755.046 386.302 756.156 386.856 757.669 386.856Z" fill="#FFF7F7"/>
</g>
<defs>
<filter id="filter0_f_307_8" x="-66.4524" y="-421.706" width="2223.23" height="1382.07" filterUnits="userSpaceOnUse" color-interpolation-filters="sRGB">
<feFlood flood-opacity="0" result="BackgroundImageFix"/>
<feBlend mode="normal" in="SourceGraphic" in2="BackgroundImageFix" result="shape"/>
<feGaussianBlur stdDeviation="150" result="effect1_foregroundBlur_307_8"/>
</filter>
<filter id="filter1_f_307_8" x="390" y="70" width="1010" height="1010" filterUnits="userSpaceOnUse" color-interpolation-filters="sRGB">
<feFlood flood-opacity="0" result="BackgroundImageFix"/>
<feBlend mode="normal" in="SourceGraphic" in2="BackgroundImageFix" result="shape"/>
<feGaussianBlur stdDeviation="125" result="effect1_foregroundBlur_307_8"/>
</filter>
<filter id="filter2_f_307_8" x="-38" y="345" width="1397" height="1397" filterUnits="userSpaceOnUse" color-interpolation-filters="sRGB">
<feFlood flood-opacity="0" result="BackgroundImageFix"/>
<feBlend mode="normal" in="SourceGraphic" in2="BackgroundImageFix" result="shape"/>
<feGaussianBlur stdDeviation="150" result="effect1_foregroundBlur_307_8"/>
</filter>
<filter id="filter3_f_307_8" x="474" y="-61" width="1965" height="1599" filterUnits="userSpaceOnUse" color-interpolation-filters="sRGB">
<feFlood flood-opacity="0" result="BackgroundImageFix"/>
<feBlend mode="normal" in="SourceGraphic" in2="BackgroundImageFix" result="shape"/>
<feGaussianBlur stdDeviation="175" result="effect1_foregroundBlur_307_8"/>
</filter>
<filter id="filter4_f_307_8" x="640" y="178" width="1749" height="1416" filterUnits="userSpaceOnUse" color-interpolation-filters="sRGB">
<feFlood flood-opacity="0" result="BackgroundImageFix"/>
<feBlend mode="normal" in="SourceGraphic" in2="BackgroundImageFix" result="shape"/>
<feGaussianBlur stdDeviation="150" result="effect1_foregroundBlur_307_8"/>
</filter>
<filter id="filter5_f_307_8" x="345.075" y="-622.419" width="1658.68" height="1116.44" filterUnits="userSpaceOnUse" color-interpolation-filters="sRGB">
<feFlood flood-opacity="0" result="BackgroundImageFix"/>
<feBlend mode="normal" in="SourceGraphic" in2="BackgroundImageFix" result="shape"/>
<feGaussianBlur stdDeviation="150" result="effect1_foregroundBlur_307_8"/>
</filter>
<linearGradient id="paint0_linear_307_8" x1="374.126" y1="381.923" x2="1491.32" y2="371.531" gradientUnits="userSpaceOnUse">
<stop offset="0.422952" stop-color="#8900C9"/>
<stop offset="1" stop-color="#FFCCFF"/>
</linearGradient>
<clipPath id="clip0_307_8">
<rect x="16" y="16" width="1168" height="598" rx="72" fill="white"/>
</clipPath>
</defs>
</svg>
