<svg width="1200" height="630" viewBox="0 0 1200 630" fill="none" xmlns="http://www.w3.org/2000/svg">
<rect width="1200" height="630" fill="white"/>
<path d="M486.446 296.975C487.935 296.975 489.08 297.662 489.882 299.036C490.798 300.41 491.256 302.299 491.256 304.704C491.256 309.284 490.168 312.834 487.992 315.353C483.068 321.422 477.743 326.403 472.017 330.296C466.406 334.189 459.993 336.136 452.778 336.136C446.709 336.136 441.784 333.96 438.005 329.609C431.478 333.846 424.664 336.021 417.564 336.136C416.075 358.236 412.697 376.671 407.429 391.442C402.161 406.328 394.431 413.771 384.239 413.771C378.055 413.771 373.474 411.538 370.497 407.072C367.519 402.607 366.031 396.423 366.031 388.522C366.031 377.301 368.607 364.19 373.761 349.19C378.914 334.304 386.873 317.872 397.638 299.895C397.638 283.177 397.523 271.554 397.294 265.028C397.18 261.707 398.497 259.073 401.245 257.127C403.993 255.18 407.429 254.207 411.552 254.207C413.956 254.207 415.674 254.722 416.705 255.753C417.85 256.669 418.48 258.558 418.594 261.421C418.594 264.283 418.652 266.402 418.766 267.776C422.431 263.196 426.038 259.932 429.588 257.986C433.138 255.924 436.917 254.894 440.925 254.894C447.338 254.894 452.549 257.47 456.557 262.623C460.68 267.776 462.741 274.532 462.741 282.891C462.741 288.959 461.768 294.856 459.821 300.582C457.874 306.307 455.183 311.517 451.747 316.212C454.152 316.899 456.156 317.242 457.759 317.242C461.539 317.242 465.146 315.868 468.581 313.12C472.017 310.372 476.426 305.792 481.808 299.379C483.182 297.776 484.728 296.975 486.446 296.975ZM418.423 319.647C422.545 318.731 426.324 316.498 429.76 312.948C433.31 309.284 436.116 304.818 438.177 299.551C440.238 294.169 441.269 288.559 441.269 282.719C441.269 279.284 440.582 276.707 439.208 274.99C437.833 273.158 436.001 272.242 433.711 272.242C429.588 272.242 424.607 276.593 418.766 285.295C418.652 290.333 418.594 297.719 418.594 307.452C418.594 312.719 418.537 316.784 418.423 319.647ZM385.613 396.939C388.705 396.939 391.282 390.183 393.343 376.671C395.405 363.274 396.722 346.556 397.294 326.517C392.37 337.968 388.476 348.903 385.613 359.323C382.75 369.743 381.319 378.503 381.319 385.602C381.319 389.267 381.777 392.072 382.693 394.019C383.495 395.965 384.468 396.939 385.613 396.939ZM499.921 243.901C495.112 243.901 491.504 242.813 489.099 240.638C486.695 238.348 485.492 235.199 485.492 231.191C485.492 227.183 487.038 223.863 490.13 221.229C493.337 218.481 497.287 217.107 501.983 217.107C506.22 217.107 509.655 218.137 512.289 220.199C514.923 222.26 516.24 225.18 516.24 228.958C516.24 233.538 514.751 237.203 511.774 239.951C508.796 242.584 504.846 243.901 499.921 243.901ZM498.547 336.136C491.103 336.136 485.664 333.502 482.228 328.235C478.907 322.968 477.247 315.983 477.247 307.28C477.247 302.128 477.877 295.543 479.136 287.528C480.511 279.398 482.228 271.841 484.29 264.856C485.32 261.192 486.695 258.673 488.412 257.298C490.13 255.924 492.879 255.237 496.658 255.237C502.498 255.237 505.418 257.184 505.418 261.077C505.418 263.94 504.33 270.581 502.154 281.001C499.406 293.597 498.032 302.128 498.032 306.593C498.032 310.029 498.49 312.662 499.406 314.494C500.322 316.326 501.868 317.242 504.044 317.242C506.105 317.242 508.682 315.811 511.774 312.948C514.866 310.086 518.989 305.563 524.142 299.379C525.516 297.776 527.062 296.975 528.78 296.975C530.269 296.975 531.414 297.662 532.215 299.036C533.131 300.41 533.59 302.299 533.59 304.704C533.59 309.284 532.502 312.834 530.326 315.353C518.989 329.208 508.396 336.136 498.547 336.136ZM619.666 296.975C621.155 296.975 622.3 297.662 623.102 299.036C624.018 300.41 624.476 302.299 624.476 304.704C624.476 309.284 623.388 312.834 621.212 315.353C616.173 321.307 610.619 326.288 604.55 330.296C598.594 334.189 591.838 336.136 584.28 336.136C578.439 336.136 573.229 335.048 568.648 332.872C564.182 330.697 560.632 327.605 557.998 323.597C551.47 331.842 543.74 335.964 534.808 335.964C528.51 335.964 523.528 334.132 519.863 330.468C516.199 326.804 514.367 321.937 514.367 315.868C514.367 310.143 515.684 305.506 518.317 301.956C520.951 298.406 524.673 296.631 529.483 296.631C533.606 296.631 535.667 298.177 535.667 301.269C535.667 302.07 535.552 303.502 535.323 305.563C534.98 309.685 534.808 312.032 534.808 312.605C534.808 316.04 536.297 317.758 539.274 317.758C541.45 317.758 543.511 316.498 545.458 313.979C547.519 311.345 549.18 307.796 550.44 303.33C551.814 298.864 552.501 293.94 552.501 288.559C552.501 284.436 551.986 281.001 550.955 278.253C549.924 275.39 548.665 273.959 547.176 273.959C545.916 273.959 545 274.303 544.427 274.99C543.855 275.562 543.282 276.593 542.71 278.081C542.023 279.913 541.106 281.402 539.961 282.547C538.816 283.578 536.812 284.093 533.949 284.093C531.43 284.093 529.426 283.234 527.937 281.517C526.448 279.684 525.704 276.936 525.704 273.272C525.704 267.432 527.479 262.852 531.029 259.531C534.579 256.211 539.16 254.55 544.771 254.55C549.581 254.55 553.932 255.753 557.826 258.157C561.72 260.447 564.697 263.825 566.758 268.291C570.194 263.711 574.03 260.276 578.267 257.986C582.619 255.695 586.856 254.55 590.979 254.55C595.445 254.55 598.823 255.581 601.114 257.642C603.519 259.703 604.722 263.024 604.722 267.604C604.722 272.757 603.748 276.822 601.801 279.799C599.854 282.662 597.506 284.093 594.758 284.093C592.239 284.093 590.521 283.578 589.605 282.547C588.689 281.517 588.002 280.028 587.543 278.081C587.314 276.707 586.971 275.677 586.513 274.99C586.055 274.303 585.253 273.959 584.108 273.959C582.734 273.959 581.245 275.276 579.642 277.91C578.153 280.429 576.836 283.807 575.691 288.043C574.66 292.28 574.145 296.689 574.145 301.269C574.145 306.651 575.405 310.83 577.924 313.807C580.558 316.67 584.108 318.101 588.574 318.101C593.04 318.101 597.22 316.613 601.114 313.635C605.122 310.544 609.76 305.792 615.028 299.379C616.402 297.776 617.948 296.975 619.666 296.975ZM698.218 282.547C699.707 282.547 700.852 283.291 701.654 284.78C702.455 286.269 702.856 288.158 702.856 290.448C702.856 295.944 701.196 299.208 697.875 300.238C691.004 302.643 683.445 304.017 675.2 304.36C673.024 313.979 668.73 321.708 662.317 327.548C655.904 333.273 648.632 336.136 640.501 336.136C633.63 336.136 627.732 334.476 622.808 331.155C617.998 327.834 614.334 323.426 611.815 317.929C609.295 312.433 608.035 306.479 608.035 300.066C608.035 291.364 609.696 283.635 613.017 276.879C616.338 270.009 620.919 264.684 626.759 260.905C632.599 257.012 639.07 255.066 646.17 255.066C654.873 255.066 661.859 258.1 667.127 264.169C672.509 270.123 675.658 277.509 676.574 286.326C681.957 285.982 688.37 284.837 695.813 282.891C696.729 282.662 697.531 282.547 698.218 282.547ZM641.875 317.929C645.54 317.929 648.689 316.441 651.323 313.464C654.072 310.487 655.904 306.193 656.82 300.582C653.27 298.177 650.522 295.028 648.575 291.135C646.742 287.242 645.826 283.12 645.826 278.768C645.826 276.936 645.998 275.104 646.342 273.272H645.483C640.902 273.272 637.066 275.505 633.974 279.971C630.996 284.322 629.508 290.505 629.508 298.521C629.508 304.818 630.71 309.628 633.115 312.948C635.634 316.269 638.554 317.929 641.875 317.929ZM700.31 336.136C695.959 336.136 692.867 333.846 691.035 329.266C689.317 324.685 688.458 317.357 688.458 307.28C688.458 292.395 690.576 278.253 694.814 264.856C695.844 261.535 697.505 259.131 699.795 257.642C702.2 256.039 705.521 255.237 709.758 255.237C712.049 255.237 713.652 255.524 714.568 256.096C715.484 256.669 715.942 257.757 715.942 259.36C715.942 261.192 715.083 265.314 713.366 271.726C712.22 276.306 711.304 280.314 710.617 283.749C709.93 287.185 709.357 291.421 708.899 296.46C712.678 286.612 716.916 278.597 721.611 272.413C726.306 266.23 730.887 261.821 735.353 259.188C739.934 256.554 744.114 255.237 747.893 255.237C755.336 255.237 759.058 258.959 759.058 266.402C759.058 267.89 758.543 271.497 757.512 277.223C756.596 281.803 756.138 284.665 756.138 285.81C756.138 289.818 757.569 291.822 760.432 291.822C763.639 291.822 767.761 289.303 772.8 284.265C774.289 282.776 775.835 282.032 777.438 282.032C778.927 282.032 780.072 282.719 780.874 284.093C781.79 285.352 782.248 287.07 782.248 289.246C782.248 293.482 781.103 296.803 778.812 299.208C775.606 302.528 771.827 305.391 767.475 307.796C763.238 310.086 758.715 311.231 753.905 311.231C747.835 311.231 743.197 309.685 739.991 306.593C736.899 303.502 735.353 299.322 735.353 294.055C735.353 292.337 735.525 290.62 735.868 288.902C736.097 286.612 736.212 285.066 736.212 284.265C736.212 282.433 735.582 281.517 734.322 281.517C732.604 281.517 730.314 283.463 727.451 287.356C724.703 291.135 721.954 296.173 719.206 302.471C716.457 308.769 714.224 315.41 712.507 322.395C711.247 327.777 709.758 331.441 708.04 333.388C706.437 335.22 703.861 336.136 700.31 336.136ZM826.406 255.237C829.04 255.237 830.873 255.581 831.903 256.268C832.934 256.955 833.449 258.1 833.449 259.703C833.449 262.451 831.961 272.242 828.983 289.074C826.349 305.219 824.803 314.781 824.345 317.758C820.108 347.186 814.268 370.488 806.824 387.664C799.38 404.84 789.474 413.427 777.107 413.427C771.266 413.427 766.514 411.595 762.849 407.931C759.185 404.381 757.352 399.687 757.352 393.847C757.352 388.465 758.555 382.969 760.96 377.358C763.479 371.747 768.06 365.278 774.702 357.949C781.458 350.735 790.963 342.434 803.217 333.044L803.732 329.094C804.534 324.857 805.45 318.788 806.48 310.887C804.19 319.132 800.984 325.43 796.861 329.781C792.738 334.018 788.387 336.136 783.806 336.136C778.653 336.136 774.415 333.789 771.094 329.094C767.888 324.285 766.285 318.33 766.285 311.231C766.285 302.643 766.857 294.799 768.002 287.7C769.148 280.486 771.037 272.871 773.671 264.856C774.816 261.421 776.419 258.959 778.481 257.47C780.542 255.982 783.806 255.237 788.272 255.237C790.791 255.237 792.509 255.638 793.425 256.44C794.456 257.241 794.971 258.444 794.971 260.047C794.971 260.963 794.341 264.054 793.082 269.322C791.937 273.558 791.02 277.394 790.333 280.829C789.417 285.524 788.616 290.047 787.929 294.398C787.241 298.635 786.898 302.128 786.898 304.876C786.898 309.227 788.1 311.403 790.505 311.403C792.223 311.403 794.342 309.685 796.861 306.25C799.495 302.815 802.243 297.605 805.106 290.62C808.084 283.635 810.947 275.047 813.695 264.856C814.611 261.421 815.985 258.959 817.818 257.47C819.764 255.982 822.627 255.237 826.406 255.237ZM778.996 396.767C781.859 396.767 785.066 393.446 788.616 386.805C792.166 380.163 795.716 369.114 799.266 353.655C790.448 361.098 784.035 367.854 780.027 373.923C776.133 380.106 774.186 385.488 774.186 390.068C774.186 392.015 774.53 393.618 775.217 394.877C776.019 396.137 777.278 396.767 778.996 396.767Z" fill="black"/>
</svg>
