<svg width="197" height="83" viewBox="0 0 197 83" fill="none" xmlns="http://www.w3.org/2000/svg">
<path d="M50.904 33.944C51.528 33.944 52.008 34.232 52.344 34.808C52.728 35.384 52.92 36.176 52.92 37.184C52.92 39.104 52.464 40.592 51.552 41.648C49.488 44.192 47.256 46.28 44.856 47.912C42.504 49.544 39.816 50.36 36.792 50.36C34.248 50.36 32.184 49.448 30.6 47.624C27.864 49.4 25.008 50.312 22.032 50.36C21.408 59.624 19.992 67.352 17.784 73.544C15.576 79.784 12.336 82.904 8.064 82.904C5.472 82.904 3.552 81.968 2.304 80.096C1.056 78.224 0.432 75.632 0.432 72.32C0.432 67.616 1.512 62.12 3.672 55.832C5.832 49.592 9.168 42.704 13.68 35.168C13.68 28.16 13.632 23.288 13.536 20.552C13.488 19.16 14.04 18.056 15.192 17.24C16.344 16.424 17.784 16.016 19.512 16.016C20.52 16.016 21.24 16.232 21.672 16.664C22.152 17.048 22.416 17.84 22.464 19.04C22.464 20.24 22.488 21.128 22.536 21.704C24.072 19.784 25.584 18.416 27.072 17.6C28.56 16.736 30.144 16.304 31.824 16.304C34.512 16.304 36.696 17.384 38.376 19.544C40.104 21.704 40.968 24.536 40.968 28.04C40.968 30.584 40.56 33.056 39.744 35.456C38.928 37.856 37.8 40.04 36.36 42.008C37.368 42.296 38.208 42.44 38.88 42.44C40.464 42.44 41.976 41.864 43.416 40.712C44.856 39.56 46.704 37.64 48.96 34.952C49.536 34.28 50.184 33.944 50.904 33.944ZM22.392 43.448C24.12 43.064 25.704 42.128 27.144 40.64C28.632 39.104 29.808 37.232 30.672 35.024C31.536 32.768 31.968 30.416 31.968 27.968C31.968 26.528 31.68 25.448 31.104 24.728C30.528 23.96 29.76 23.576 28.8 23.576C27.072 23.576 24.984 25.4 22.536 29.048C22.488 31.16 22.464 34.256 22.464 38.336C22.464 40.544 22.44 42.248 22.392 43.448ZM8.64 75.848C9.936 75.848 11.016 73.016 11.88 67.352C12.744 61.736 13.296 54.728 13.536 46.328C11.472 51.128 9.84 55.712 8.64 60.08C7.44 64.448 6.84 68.12 6.84 71.096C6.84 72.632 7.032 73.808 7.416 74.624C7.752 75.44 8.16 75.848 8.64 75.848ZM56.5521 11.696C54.5361 11.696 53.0241 11.24 52.0161 10.328C51.0081 9.368 50.5041 8.048 50.5041 6.368C50.5041 4.688 51.1521 3.296 52.4481 2.192C53.7921 1.04 55.4481 0.463998 57.4161 0.463998C59.1921 0.463998 60.6321 0.895998 61.7361 1.76C62.8401 2.624 63.3921 3.848 63.3921 5.432C63.3921 7.352 62.7681 8.888 61.5201 10.04C60.2721 11.144 58.6161 11.696 56.5521 11.696ZM55.9761 50.36C52.8561 50.36 50.5761 49.256 49.1361 47.048C47.7441 44.84 47.0481 41.912 47.0481 38.264C47.0481 36.104 47.3121 33.344 47.8401 29.984C48.4161 26.576 49.1361 23.408 50.0001 20.48C50.4321 18.944 51.0081 17.888 51.7281 17.312C52.4481 16.736 53.6001 16.448 55.1841 16.448C57.6321 16.448 58.8561 17.264 58.8561 18.896C58.8561 20.096 58.4001 22.88 57.4881 27.248C56.3361 32.528 55.7601 36.104 55.7601 37.976C55.7601 39.416 55.9521 40.52 56.3361 41.288C56.7201 42.056 57.3681 42.44 58.2801 42.44C59.1441 42.44 60.2241 41.84 61.5201 40.64C62.8161 39.44 64.5441 37.544 66.7041 34.952C67.2801 34.28 67.9281 33.944 68.6481 33.944C69.2721 33.944 69.7521 34.232 70.0881 34.808C70.4721 35.384 70.6641 36.176 70.6641 37.184C70.6641 39.104 70.2081 40.592 69.2961 41.648C64.5441 47.456 60.1041 50.36 55.9761 50.36ZM106.743 33.944C107.367 33.944 107.847 34.232 108.183 34.808C108.567 35.384 108.759 36.176 108.759 37.184C108.759 39.104 108.303 40.592 107.391 41.648C105.279 44.144 102.951 46.232 100.407 47.912C97.9108 49.544 95.0788 50.36 91.9108 50.36C89.4628 50.36 87.2788 49.904 85.3588 48.992C83.4868 48.08 81.9988 46.784 80.8948 45.104C78.1588 48.56 74.9188 50.288 71.1748 50.288C68.5348 50.288 66.4468 49.52 64.9108 47.984C63.3748 46.448 62.6068 44.408 62.6068 41.864C62.6068 39.464 63.1588 37.52 64.2628 36.032C65.3668 34.544 66.9268 33.8 68.9428 33.8C70.6708 33.8 71.5348 34.448 71.5348 35.744C71.5348 36.08 71.4868 36.68 71.3908 37.544C71.2468 39.272 71.1748 40.256 71.1748 40.496C71.1748 41.936 71.7988 42.656 73.0468 42.656C73.9588 42.656 74.8228 42.128 75.6388 41.072C76.5028 39.968 77.1988 38.48 77.7268 36.608C78.3028 34.736 78.5908 32.672 78.5908 30.416C78.5908 28.688 78.3748 27.248 77.9428 26.096C77.5108 24.896 76.9828 24.296 76.3588 24.296C75.8308 24.296 75.4468 24.44 75.2068 24.728C74.9668 24.968 74.7268 25.4 74.4868 26.024C74.1988 26.792 73.8148 27.416 73.3348 27.896C72.8548 28.328 72.0148 28.544 70.8148 28.544C69.7588 28.544 68.9188 28.184 68.2948 27.464C67.6708 26.696 67.3588 25.544 67.3588 24.008C67.3588 21.56 68.1028 19.64 69.5908 18.248C71.0788 16.856 72.9988 16.16 75.3508 16.16C77.3668 16.16 79.1908 16.664 80.8228 17.672C82.4548 18.632 83.7028 20.048 84.5668 21.92C86.0068 20 87.6148 18.56 89.3908 17.6C91.2148 16.64 92.9908 16.16 94.7188 16.16C96.5908 16.16 98.0068 16.592 98.9668 17.456C99.9748 18.32 100.479 19.712 100.479 21.632C100.479 23.792 100.071 25.496 99.2548 26.744C98.4388 27.944 97.4548 28.544 96.3028 28.544C95.2468 28.544 94.5268 28.328 94.1428 27.896C93.7588 27.464 93.4708 26.84 93.2788 26.024C93.1828 25.448 93.0388 25.016 92.8468 24.728C92.6548 24.44 92.3188 24.296 91.8388 24.296C91.2628 24.296 90.6388 24.848 89.9668 25.952C89.3428 27.008 88.7908 28.424 88.3108 30.2C87.8788 31.976 87.6628 33.824 87.6628 35.744C87.6628 38 88.1908 39.752 89.2468 41C90.3508 42.2 91.8388 42.8 93.7108 42.8C95.5828 42.8 97.3348 42.176 98.9668 40.928C100.647 39.632 102.591 37.64 104.799 34.952C105.375 34.28 106.023 33.944 106.743 33.944ZM139.668 27.896C140.292 27.896 140.772 28.208 141.108 28.832C141.444 29.456 141.612 30.248 141.612 31.208C141.612 33.512 140.916 34.88 139.524 35.312C136.644 36.32 133.476 36.896 130.02 37.04C129.108 41.072 127.308 44.312 124.62 46.76C121.932 49.16 118.884 50.36 115.476 50.36C112.596 50.36 110.124 49.664 108.06 48.272C106.044 46.88 104.508 45.032 103.452 42.728C102.396 40.424 101.868 37.928 101.868 35.24C101.868 31.592 102.564 28.352 103.956 25.52C105.348 22.64 107.268 20.408 109.716 18.824C112.164 17.192 114.876 16.376 117.852 16.376C121.5 16.376 124.428 17.648 126.636 20.192C128.892 22.688 130.212 25.784 130.596 29.48C132.852 29.336 135.54 28.856 138.66 28.04C139.044 27.944 139.38 27.896 139.668 27.896ZM116.052 42.728C117.588 42.728 118.908 42.104 120.012 40.856C121.164 39.608 121.932 37.808 122.316 35.456C120.828 34.448 119.676 33.128 118.86 31.496C118.092 29.864 117.708 28.136 117.708 26.312C117.708 25.544 117.78 24.776 117.924 24.008H117.564C115.644 24.008 114.036 24.944 112.74 26.816C111.492 28.64 110.868 31.232 110.868 34.592C110.868 37.232 111.372 39.248 112.38 40.64C113.436 42.032 114.66 42.728 116.052 42.728ZM140.545 50.36C138.721 50.36 137.425 49.4 136.657 47.48C135.937 45.56 135.577 42.488 135.577 38.264C135.577 32.024 136.465 26.096 138.241 20.48C138.673 19.088 139.369 18.08 140.329 17.456C141.337 16.784 142.729 16.448 144.505 16.448C145.465 16.448 146.137 16.568 146.521 16.808C146.905 17.048 147.097 17.504 147.097 18.176C147.097 18.944 146.737 20.672 146.017 23.36C145.537 25.28 145.153 26.96 144.865 28.4C144.577 29.84 144.337 31.616 144.145 33.728C145.729 29.6 147.505 26.24 149.473 23.648C151.441 21.056 153.361 19.208 155.233 18.104C157.153 17 158.905 16.448 160.489 16.448C163.609 16.448 165.169 18.008 165.169 21.128C165.169 21.752 164.953 23.264 164.521 25.664C164.137 27.584 163.945 28.784 163.945 29.264C163.945 30.944 164.545 31.784 165.745 31.784C167.089 31.784 168.817 30.728 170.929 28.616C171.553 27.992 172.201 27.68 172.873 27.68C173.497 27.68 173.977 27.968 174.313 28.544C174.697 29.072 174.889 29.792 174.889 30.704C174.889 32.48 174.409 33.872 173.449 34.88C172.105 36.272 170.521 37.472 168.697 38.48C166.921 39.44 165.025 39.92 163.009 39.92C160.465 39.92 158.521 39.272 157.177 37.976C155.881 36.68 155.233 34.928 155.233 32.72C155.233 32 155.305 31.28 155.449 30.56C155.545 29.6 155.593 28.952 155.593 28.616C155.593 27.848 155.329 27.464 154.801 27.464C154.081 27.464 153.121 28.28 151.921 29.912C150.769 31.496 149.617 33.608 148.465 36.248C147.313 38.888 146.377 41.672 145.657 44.6C145.129 46.856 144.505 48.392 143.785 49.208C143.113 49.976 142.033 50.36 140.545 50.36ZM193.398 16.448C194.502 16.448 195.27 16.592 195.702 16.88C196.134 17.168 196.35 17.648 196.35 18.32C196.35 19.472 195.726 23.576 194.478 30.632C193.374 37.4 192.726 41.408 192.534 42.656C190.758 54.992 188.31 64.76 185.19 71.96C182.07 79.16 177.918 82.76 172.734 82.76C170.286 82.76 168.294 81.992 166.758 80.456C165.222 78.968 164.454 77 164.454 74.552C164.454 72.296 164.958 69.992 165.966 67.64C167.022 65.288 168.942 62.576 171.726 59.504C174.558 56.48 178.542 53 183.678 49.064L183.894 47.408C184.23 45.632 184.614 43.088 185.046 39.776C184.086 43.232 182.742 45.872 181.014 47.696C179.286 49.472 177.462 50.36 175.542 50.36C173.382 50.36 171.606 49.376 170.214 47.408C168.87 45.392 168.198 42.896 168.198 39.92C168.198 36.32 168.438 33.032 168.918 30.056C169.398 27.032 170.19 23.84 171.294 20.48C171.774 19.04 172.446 18.008 173.31 17.384C174.174 16.76 175.542 16.448 177.414 16.448C178.47 16.448 179.19 16.616 179.574 16.952C180.006 17.288 180.222 17.792 180.222 18.464C180.222 18.848 179.958 20.144 179.43 22.352C178.95 24.128 178.566 25.736 178.278 27.176C177.894 29.144 177.558 31.04 177.27 32.864C176.982 34.64 176.838 36.104 176.838 37.256C176.838 39.08 177.342 39.992 178.35 39.992C179.07 39.992 179.958 39.272 181.014 37.832C182.118 36.392 183.27 34.208 184.47 31.28C185.718 28.352 186.918 24.752 188.07 20.48C188.454 19.04 189.03 18.008 189.798 17.384C190.614 16.76 191.814 16.448 193.398 16.448ZM173.526 75.776C174.726 75.776 176.07 74.384 177.558 71.6C179.046 68.816 180.534 64.184 182.022 57.704C178.326 60.824 175.638 63.656 173.958 66.2C172.326 68.792 171.51 71.048 171.51 72.968C171.51 73.784 171.654 74.456 171.942 74.984C172.278 75.512 172.806 75.776 173.526 75.776Z" fill="black"/>
</svg>
