<svg width="61" height="58" viewBox="0 0 61 58" fill="none" xmlns="http://www.w3.org/2000/svg">
<path d="M5.112 30.308C7.656 30.308 9.156 31.904 9.612 35.096C9.612 37.928 8.292 39.956 5.652 41.18C5.364 41.324 4.968 41.396 4.464 41.396H4.212L3.42 41.324V41.396L3.564 51.008C3.396 51.752 3.012 52.124 2.412 52.124C1.74 51.908 1.404 51.56 1.404 51.08L1.08 31.496C1.08 30.872 1.452 30.548 2.196 30.524L2.952 30.848C3.624 30.488 4.344 30.308 5.112 30.308ZM3.312 34.124L3.204 35.24L3.312 39.056L4.32 39.308C5.928 39.308 6.972 38.132 7.452 35.78V35.24C7.284 33.344 6.612 32.396 5.436 32.396H4.896C3.84 32.396 3.312 32.972 3.312 34.124ZM11.7332 22.244C12.6452 22.436 13.1012 22.844 13.1012 23.468C12.8612 24.14 12.4772 24.476 11.9492 24.476C11.0612 24.308 10.6172 23.864 10.6172 23.144C10.8572 22.544 11.2292 22.244 11.7332 22.244ZM13.1012 27.284C13.4852 27.284 13.8092 27.632 14.0732 28.328L13.7492 30.884V32.576C13.7492 34.544 14.0852 37.124 14.7572 40.316C14.5172 40.772 14.1092 41 13.5332 41C12.5492 41 11.9012 38.12 11.5892 32.36V31.1C11.5892 28.556 12.0932 27.284 13.1012 27.284ZM21.4698 30.596H21.5418C22.0218 30.596 22.3218 30.98 22.4418 31.748C21.8418 34.172 21.5418 36.044 21.5418 37.364C22.1658 38.42 23.0658 38.948 24.2418 38.948C24.5538 39.236 24.7098 39.536 24.7098 39.848V40.28C24.4938 40.736 24.0138 40.964 23.2698 40.964C22.5978 40.916 21.9498 40.64 21.3258 40.136H21.0018C20.7378 42.704 20.3898 43.988 19.9578 43.988H19.3098C18.7818 43.7 18.5178 43.364 18.5178 42.98L19.2018 37.58V37.436C17.5458 34.388 16.7178 32.492 16.7178 31.748C16.7178 31.172 17.1258 30.872 17.9418 30.848C18.5178 30.848 19.0458 31.772 19.5258 33.62L19.6698 33.764H19.8858C20.1258 31.652 20.6538 30.596 21.4698 30.596ZM31.7213 27.428C33.4973 27.428 34.8413 28.748 35.7533 31.388L35.8973 32.144C35.8973 34.712 34.6973 37.34 32.2973 40.028C31.3373 40.916 30.3653 41.36 29.3813 41.36C27.9413 41.36 26.9213 40.532 26.3213 38.876C26.1053 38.108 25.9973 37.436 25.9973 36.86V36.428C25.9973 32.636 27.3773 29.756 30.1373 27.788C30.6173 27.548 31.1453 27.428 31.7213 27.428ZM28.1213 36.788C28.1213 38.42 28.5413 39.236 29.3813 39.236C31.1333 39.236 32.5853 36.992 33.7373 32.504V31.82C33.3293 30.332 32.5733 29.588 31.4693 29.588C31.0373 29.588 30.8213 29.888 30.8213 30.488C30.8213 30.896 30.3413 31.22 29.3813 31.46C28.5413 32.876 28.1213 34.652 28.1213 36.788ZM42.2446 26.816C43.7566 26.816 44.6566 27.872 44.9446 29.984V30.308C44.9446 32.636 43.7446 34.772 41.3446 36.716C42.7366 38.084 45.1726 38.768 48.6526 38.768C49.1806 38.936 49.4446 39.308 49.4446 39.884C49.4446 40.532 49.0246 40.856 48.1846 40.856C45.8326 40.856 43.3606 40.256 40.7686 39.056V40.1C40.7686 42.572 40.2406 43.808 39.1846 43.808C38.4406 43.808 38.0686 42.38 38.0686 39.524V36.716L37.9606 35.708L38.2126 34.556L37.9606 31.1V30.956C37.9606 30.308 38.2966 29.864 38.9686 29.624C39.9046 27.752 40.9966 26.816 42.2446 26.816ZM40.4446 34.7C41.1406 34.7 41.9206 33.452 42.7846 30.956V29.408L42.3526 28.94H42.0286C40.9726 29.66 40.4446 31.58 40.4446 34.7ZM51.895 29.6C52.7817 29.6 53.3897 31.5507 53.719 35.452C54.1497 37.2507 54.4664 38.15 54.669 38.15H54.897C55.5304 36.554 55.847 34.9707 55.847 33.4L55.619 30.778C55.8977 30.094 56.2904 29.752 56.797 29.752C57.7344 29.752 58.203 31.4113 58.203 34.73C58.7604 38.1753 59.039 41.38 59.039 44.344V46.13C59.039 51.5767 57.4937 55.25 54.403 57.15L53.567 57.302C52.123 57.302 50.7804 55.9593 49.539 53.274L49.197 50.994V50.88C49.197 49.208 49.6657 48.372 50.603 48.372L51.553 48.98L51.439 51.374C51.439 52.5393 52.0344 53.7173 53.225 54.908H53.719C55.1124 54.908 56.1384 52.248 56.797 46.928L56.873 44.724C56.8477 42.1653 56.7464 40.5313 56.569 39.822C55.5557 40.7087 54.7577 41.152 54.175 41.152C52.883 41.152 51.7304 37.694 50.717 30.778L50.603 30.702C50.603 30.1193 51.0337 29.752 51.895 29.6Z" fill="black"/>
</svg>
